# xmcd
#
# Track frame offsets: 
#        150
#        16066
#        27645
#        40851
#        52242
#        65599
#        78009
#        91139
#        106024
#        118936
#
# Disc length: 1750 seconds
#
# Revision: 2
# Processed by: cddbd v1.5.2PL0 Copyright (c) Steve Scherf et al.
# Submitted via: ExactAudioCopy v0.95b4
#
DISCID=7906d40a
DTITLE=Various Artist - Dirty Blues
DYEAR=2002
DGENRE=Blues
TTITLE0=Lonnie Johnson - I Got the Best Jelly Rollin' in Town
TTITLE1=Lightnin' Hopkins - Let Me Play with Your Poodle
TTITLE2=Ethel Waters - My Handy Man
TTITLE3=Harlem Hamfats - The Garbage Man
TTITLE4=Bessie Smith - Kitchen Man
TTITLE5=Hokum Boys - Caught Us Doing It
TTITLE6=Rosetta Howard - The Candy Man
TTITLE7=Memphis Minnie - If You See My Rooster
TTITLE8=Jesse James - Sweet Patootie
TTITLE9=Tampa Red's Hokum Jug Band - It's Tight like That
EXTD=Alt. title: "Legendary Blues: Dirty Blues"\nColumbia River Entert
EXTD=ainment/Legendary Blues CRG 120040 (2002-09-17), UPC 723724420328
EXTD=
EXTT0=
EXTT1=
EXTT2=
EXTT3=
EXTT4=
EXTT5=
EXTT6=
EXTT7=
EXTT8=
EXTT9=
PLAYORDER=
